<svg xmlns="http://www.w3.org/2000/svg" width="512" height="512" viewBox="0 0 512 512">
  <g transform="translate(256 256) scale(1.14) translate(-256 -256)">
    <path d="M128 195c-25-69 31-106 91-55 25-11 50-11 75 0 60-51 116-14 91 55 24 29 38 67 38 108 0 92-74 149-167 149S89 395 89 303c0-41 15-79 39-108Z" fill="#ef8b63" stroke="#9c533a" stroke-width="15" stroke-linejoin="round"/>
    <ellipse cx="199" cy="286" rx="14" ry="18" fill="#2f3033"/>
    <ellipse cx="313" cy="286" rx="14" ry="18" fill="#2f3033"/>
    <path d="M226 337c18 17 42 17 60 0" fill="none" stroke="#874e3d" stroke-width="13" stroke-linecap="round"/>
    <ellipse cx="323" cy="351" rx="42" ry="30" fill="#ffc2a3" opacity=".8"/>
  </g>
</svg>
